<svg width="20" height="21" viewBox="0 0 20 21" fill="none" xmlns="http://www.w3.org/2000/svg">
<g id="fluent:delete-24-regular">
<path id="Vector" d="M8.33317 4.78776H11.6665C11.6665 4.34573 11.4909 3.92181 11.1783 3.60925C10.8658 3.29669 10.4419 3.12109 9.99984 3.12109C9.55781 3.12109 9.13389 3.29669 8.82133 3.60925C8.50877 3.92181 8.33317 4.34573 8.33317 4.78776ZM7.08317 4.78776C7.08317 4.40474 7.15861 4.02547 7.30519 3.6716C7.45176 3.31773 7.6666 2.9962 7.93744 2.72537C8.20828 2.45453 8.52981 2.23969 8.88368 2.09311C9.23754 1.94654 9.61682 1.87109 9.99984 1.87109C10.3829 1.87109 10.7621 1.94654 11.116 2.09311C11.4699 2.23969 11.7914 2.45453 12.0622 2.72537C12.3331 2.9962 12.5479 3.31773 12.6945 3.6716C12.8411 4.02547 12.9165 4.40474 12.9165 4.78776H17.7082C17.8739 4.78776 18.0329 4.85361 18.1501 4.97082C18.2673 5.08803 18.3332 5.247 18.3332 5.41276C18.3332 5.57852 18.2673 5.73749 18.1501 5.8547C18.0329 5.97191 17.8739 6.03776 17.7082 6.03776H16.6082L15.6332 16.1303C15.5584 16.9036 15.1982 17.6213 14.6229 18.1434C14.0476 18.6656 13.2984 18.9547 12.5215 18.9544H7.47817C6.70139 18.9545 5.95242 18.6653 5.37729 18.1432C4.80217 17.621 4.44212 16.9034 4.36734 16.1303L3.3915 6.03776H2.2915C2.12574 6.03776 1.96677 5.97191 1.84956 5.8547C1.73235 5.73749 1.6665 5.57852 1.6665 5.41276C1.6665 5.247 1.73235 5.08803 1.84956 4.97082C1.96677 4.85361 2.12574 4.78776 2.2915 4.78776H7.08317ZM8.74984 8.74609C8.74984 8.58033 8.68399 8.42136 8.56678 8.30415C8.44957 8.18694 8.2906 8.12109 8.12484 8.12109C7.95908 8.12109 7.80011 8.18694 7.6829 8.30415C7.56569 8.42136 7.49984 8.58033 7.49984 8.74609V14.9961C7.49984 15.1619 7.56569 15.3208 7.6829 15.438C7.80011 15.5552 7.95908 15.6211 8.12484 15.6211C8.2906 15.6211 8.44957 15.5552 8.56678 15.438C8.68399 15.3208 8.74984 15.1619 8.74984 14.9961V8.74609ZM11.8748 8.12109C12.0406 8.12109 12.1996 8.18694 12.3168 8.30415C12.434 8.42136 12.4998 8.58033 12.4998 8.74609V14.9961C12.4998 15.1619 12.434 15.3208 12.3168 15.438C12.1996 15.5552 12.0406 15.6211 11.8748 15.6211C11.7091 15.6211 11.5501 15.5552 11.4329 15.438C11.3157 15.3208 11.2498 15.1619 11.2498 14.9961V8.74609C11.2498 8.58033 11.3157 8.42136 11.4329 8.30415C11.5501 8.18694 11.7091 8.12109 11.8748 8.12109ZM5.6115 16.0103C5.65645 16.4741 5.87254 16.9046 6.21764 17.2179C6.56275 17.5311 7.01213 17.7045 7.47817 17.7044H12.5215C12.9875 17.7045 13.4369 17.5311 13.782 17.2179C14.1271 16.9046 14.3432 16.4741 14.3882 16.0103L15.3532 6.03776H4.6465L5.6115 16.0103Z" fill="#6F6F6F"/>
</g>
</svg>
