<svg width="23" height="23" viewBox="0 0 23 23" fill="none" xmlns="http://www.w3.org/2000/svg">
<g id="Edit code">
<g id="Group 48096326">
<path id="Vector" d="M7.92035 18.6284H16.0792C18.0302 18.6284 19.6265 17.0321 19.6265 15.0811V12.7754C19.6265 12.4502 19.3604 12.1841 19.0352 12.1841C18.7101 12.1841 18.444 12.4502 18.444 12.7754V15.0811C18.444 16.3818 17.3798 17.446 16.0792 17.446H7.92035C6.61967 17.446 5.55548 16.3818 5.55548 15.0811V6.92231C5.55548 5.62163 6.61967 4.55744 7.92035 4.55744H10.2261C10.5513 4.55744 10.8173 4.29139 10.8173 3.96622C10.8173 3.64105 10.5513 3.375 10.2261 3.375H7.92035C5.96933 3.375 4.37305 4.97129 4.37305 6.92231V15.0811C4.37305 17.0321 5.96933 18.6284 7.92035 18.6284Z" fill="#6F6F6F"/>
<path id="Vector_2" d="M15.9017 4.14422L9.87131 10.1746C9.81218 10.2338 9.75306 10.3224 9.7235 10.4407L8.8958 13.3968C8.80712 13.7219 8.98448 14.0471 9.30965 14.1358C9.39833 14.1654 9.51658 14.1654 9.63482 14.1358L12.5909 13.3081C12.6796 13.2785 12.7683 13.2194 12.857 13.1603L18.9169 7.12987C19.7446 6.30216 19.7446 4.97192 18.9169 4.14422C18.0892 3.31651 16.6999 3.31651 15.9017 4.14422ZM10.2852 12.7169L10.5808 11.7118L11.3198 12.4508L10.2852 12.7169ZM18.0301 6.2726L12.4431 11.8596L11.1424 10.5589L16.7294 4.97192C17.1137 4.64675 17.7049 4.67631 18.0301 5.0606C18.3257 5.41533 18.3257 5.91787 18.0301 6.2726Z" fill="#6F6F6F"/>
</g>
</g>
</svg>
